External Loads File
version=1
nRows=77
nColumns=13
Range=5.000000e-03-10 seconds
endheader
time 	forceRightX 	forceRightY 	forceRightZ 	pointRightX 	pointRightY 	pointRightZ 	forceLeftX 	forceLeftY 	forceLeftZ 	pointLeftX 	pointLeftY 	pointLeftZ 		
7.505000 270.518877 595.070081 -0.000000 0.331019 0.149455 -0.199954 -103.659276 -11.424149 -0.000000 0.378586 0.491973 -0.442077
7.510000 261.495860 537.125634 -0.000000 0.317608 0.151150 -0.199202 -102.674464 -1.175838 -0.000000 0.387986 0.490857 -0.442140
7.515000 249.550908 477.548641 -0.000000 0.304197 0.153648 -0.198340 -99.830780 9.317277 -0.000000 0.397133 0.489164 -0.442347
7.520000 235.547492 417.664426 -0.000000 0.290579 0.157096 -0.197749 -95.247371 20.375408 -0.000000 0.405800 0.486721 -0.442331
7.525000 219.880910 358.804996 -0.000000 0.277180 0.161291 -0.197284 -89.183964 32.458200 -0.000000 0.414011 0.483640 -0.442520
7.530000 203.088566 301.929093 -0.000000 0.263848 0.166185 -0.196809 -82.001900 46.261019 -0.000000 0.421651 0.479826 -0.442688
7.535000 185.749318 247.632299 -0.000000 0.250733 0.171732 -0.196561 -74.038909 62.582495 -0.000000 0.428840 0.475179 -0.442996
7.540000 167.941988 196.554494 -0.000000 0.237851 0.177709 -0.196494 -65.607769 82.010453 -0.000000 0.435462 0.469656 -0.443448
7.545000 149.747229 149.155246 -0.000000 0.225444 0.184153 -0.196457 -56.940826 104.950214 -0.000000 0.441507 0.463561 -0.443999
7.550000 131.636899 105.349545 -0.000000 0.212724 0.190957 -0.197590 -47.935986 131.732355 -0.000000 0.446740 0.456729 -0.444128
7.555000 113.522872 65.560350 -0.000000 0.201248 0.198327 -0.197210 -39.174273 162.202705 -0.000000 0.451534 0.449652 -0.444582
7.560000 95.982311 29.370807 -0.000000 0.190872 0.206081 -0.196840 -30.909217 196.271968 -0.000000 0.455561 0.441950 -0.444889
7.565000 79.329417 -3.537215 -0.000000 0.180844 0.214348 -0.196407 -23.584166 233.608512 -0.000000 0.458801 0.433675 -0.445097
7.570000 63.639747 -33.533870 -0.000000 0.171921 0.223093 -0.195719 -17.130967 273.655586 -0.000000 0.462415 0.424756 -0.445612
7.575000 48.840242 -60.513992 -0.000000 0.164142 0.232232 -0.194696 -12.377062 315.445146 -0.000000 0.465783 0.415405 -0.445909
7.580000 34.705989 -84.399473 -0.000000 0.156912 0.241895 -0.192968 -9.196307 357.822310 -0.000000 0.468739 0.405387 -0.446412
7.585000 21.137868 -104.787968 -0.000000 0.150696 0.251679 -0.191314 -7.912708 399.485446 -0.000000 0.471726 0.395144 -0.446929
7.590000 7.936099 -121.170649 -0.000000 0.145400 0.261792 -0.190088 -7.883338 439.160199 -0.000000 0.474446 0.384457 -0.447001
7.595000 -4.663600 -132.933810 -0.000000 0.140757 0.271997 -0.189267 -9.553154 475.702715 -0.000000 0.476815 0.373868 -0.446502
7.600000 -16.242672 -139.684961 -0.000000 0.136770 0.281973 -0.189298 -13.379018 508.317059 -0.000000 0.478759 0.363411 -0.445973
7.605000 -26.614774 -141.365388 -0.000000 0.133567 0.291972 -0.189248 -18.426920 536.724678 -0.000000 0.480221 0.352687 -0.445890
7.610000 -35.293196 -138.421877 -0.000000 0.130927 0.301940 -0.189069 -24.543775 561.145702 -0.000000 0.481178 0.341647 -0.445877
7.615000 -41.786365 -131.853170 -0.000000 0.128992 0.311976 -0.189702 -31.883566 582.242498 -0.000000 0.481851 0.330568 -0.445995
7.620000 -45.990928 -122.939785 -0.000000 0.127831 0.322390 -0.190287 -39.801087 601.018608 -0.000000 0.482079 0.319455 -0.446011
7.625000 -47.920424 -113.028127 -0.000000 0.127947 0.332903 -0.190600 -48.264481 618.500422 -0.000000 0.482008 0.308287 -0.446087
7.630000 -47.943129 -103.179353 -0.000000 0.129105 0.343511 -0.191110 -56.660053 635.607189 -0.000000 0.481281 0.297120 -0.445975
7.635000 -46.479037 -94.095743 -0.000000 0.131104 0.354152 -0.191441 -64.845476 652.997309 -0.000000 0.480032 0.286184 -0.445882
7.640000 -44.044914 -86.064614 -0.000000 0.133883 0.364640 -0.191924 -72.459745 671.135088 -0.000000 0.478101 0.275515 -0.445725
7.645000 -41.164217 -79.094755 -0.000000 0.137372 0.375015 -0.192105 -79.056740 690.358801 -0.000000 0.475537 0.265187 -0.445466
7.650000 -38.369614 -73.023839 -0.000000 0.141793 0.385335 -0.192254 -83.561528 710.957220 -0.000000 0.472381 0.255045 -0.445151
7.655000 -35.967838 -67.712038 -0.000000 0.146794 0.395415 -0.192510 -86.067343 732.872307 -0.000000 0.468568 0.245165 -0.444852
7.660000 -34.277623 -62.981426 -0.000000 0.152690 0.405311 -0.192980 -85.610403 755.913872 -0.000000 0.464067 0.235522 -0.444791
7.665000 -33.448674 -58.747541 -0.000000 0.159358 0.414939 -0.193163 -82.143236 779.582918 -0.000000 0.458927 0.226200 -0.444517
7.670000 -33.576653 -54.949025 -0.000000 0.166616 0.424153 -0.193460 -75.763427 803.224795 -0.000000 0.453245 0.217146 -0.444249
7.675000 -34.721240 -51.515904 -0.000000 0.174636 0.432973 -0.193479 -66.645256 826.098964 -0.000000 0.447066 0.208616 -0.443765
7.680000 -36.937077 -48.335646 -0.000000 0.182945 0.441407 -0.193975 -54.326105 847.519678 -0.000000 0.440114 0.200548 -0.443761
7.685000 -40.156179 -45.341480 -0.000000 0.191765 0.449396 -0.194493 -39.506527 866.786957 -0.000000 0.432833 0.192771 -0.443604
7.690000 -44.290134 -42.472127 -0.000000 0.201277 0.456629 -0.194954 -22.806203 883.325599 -0.000000 0.425049 0.185677 -0.443423
7.695000 -49.217987 -39.675077 -0.000000 0.210684 0.463593 -0.196085 -5.051847 896.633739 -0.000000 0.416914 0.179068 -0.443288
7.700000 -54.874131 -36.747475 -0.000000 0.221134 0.469913 -0.196721 15.285833 906.257879 -0.000000 0.408421 0.173054 -0.443205
7.705000 -61.091773 -33.491263 -0.000000 0.232848 0.475871 -0.195845 38.769697 911.709298 -0.000000 0.399663 0.167668 -0.443108
7.710000 -67.511341 -30.049125 -0.000000 0.243719 0.481351 -0.197524 60.500962 912.872896 -0.000000 0.390572 0.162663 -0.443052
7.715000 -74.084048 -25.972699 -0.000000 0.255489 0.486394 -0.198137 83.599958 909.390547 -0.000000 0.381268 0.158191 -0.443108
7.720000 -80.561386 -21.098847 -0.000000 0.267705 0.490640 -0.197352 106.155995 901.128879 -0.000000 0.371825 0.154407 -0.443219
7.725000 -86.691653 -15.246611 -0.000000 0.279777 0.494395 -0.199356 126.802105 888.022258 -0.000000 0.362214 0.151383 -0.443104
7.730000 -92.219492 -8.019491 -0.000000 0.292462 0.497260 -0.200339 146.953681 869.668341 -0.000000 0.352221 0.148896 -0.442372
7.735000 -96.773275 0.505801 -0.000000 0.305229 0.499509 -0.200946 164.378857 846.277624 -0.000000 0.342512 0.147036 -0.442510
7.740000 -100.009817 10.290029 -0.000000 0.318068 0.500854 -0.201408 179.096035 817.881897 -0.000000 0.332812 0.145890 -0.442635
7.745000 -101.605384 21.140202 -0.000000 0.330994 0.501739 -0.201896 191.268824 784.544990 -0.000000 0.323091 0.145438 -0.442643
7.750000 -101.291056 32.766723 -0.000000 0.344371 0.501981 -0.202672 201.214495 746.309746 -0.000000 0.313480 0.145664 -0.442629
7.755000 -98.954999 44.696472 -0.000000 0.357624 0.501481 -0.202942 208.120800 703.584887 -0.000000 0.303894 0.146639 -0.442686
7.760000 -94.625419 56.616327 -0.000000 0.370681 0.500415 -0.202921 211.837057 656.757546 -0.000000 0.294442 0.148305 -0.442733
7.765000 -88.415817 68.495043 -0.000000 0.383569 0.498730 -0.202913 212.787427 606.126329 -0.000000 0.285087 0.150825 -0.442803
7.770000 -80.572902 80.498642 -0.000000 0.396321 0.496438 -0.203107 210.843862 552.259105 -0.000000 0.275866 0.153926 -0.442811
7.775000 -71.299533 93.125235 -0.000000 0.409125 0.493457 -0.202172 206.423936 495.680190 -0.000000 0.266883 0.157882 -0.442797
7.780000 -61.056730 106.817707 -0.000000 0.421319 0.489761 -0.201981 198.512559 437.672316 -0.000000 0.258177 0.162452 -0.442749
7.785000 -50.032236 122.296347 -0.000000 0.433150 0.485273 -0.201671 187.767415 378.965484 -0.000000 0.249825 0.167664 -0.442721
7.790000 -38.490109 140.159629 -0.000000 0.444492 0.480074 -0.201238 174.322236 320.561944 -0.000000 0.241880 0.173449 -0.442708
7.795000 -26.720280 160.959100 -0.000000 0.455191 0.474220 -0.201008 158.437561 263.472146 -0.000000 0.234324 0.179296 -0.442768
7.800000 -14.658359 185.243746 -0.000000 0.465168 0.467857 -0.200751 141.184599 208.270849 -0.000000 0.227282 0.186429 -0.442897
7.805000 -2.788065 213.327932 -0.000000 0.474233 0.460893 -0.200308 123.037085 155.886992 -0.000000 0.220724 0.193920 -0.442926
7.810000 8.711227 245.267933 -0.000000 0.482607 0.453110 -0.199556 105.074778 106.703422 -0.000000 0.214516 0.201797 -0.442958
7.815000 19.818417 280.619147 -0.000000 0.490261 0.443911 -0.198096 88.033151 60.897654 -0.000000 0.208740 0.210110 -0.442968
7.820000 29.499501 318.484786 -0.000000 0.497368 0.434811 -0.195707 72.024363 18.881015 -0.000000 0.203360 0.219034 -0.443064
7.825000 37.671873 357.483749 -0.000000 0.504088 0.425023 -0.193269 57.210156 -19.231950 -0.000000 0.198609 0.228358 -0.443299
7.830000 44.034428 396.007266 -0.000000 0.510104 0.414925 -0.191044 43.443749 -53.026450 -0.000000 0.194365 0.237996 -0.443415
7.835000 48.205392 432.490539 -0.000000 0.515277 0.404700 -0.190400 30.518173 -81.873872 -0.000000 0.190534 0.247841 -0.443435
7.840000 50.751871 465.538117 -0.000000 0.520429 0.394295 -0.190513 18.090915 -105.030181 -0.000000 0.187395 0.258101 -0.443342
7.845000 51.109956 494.339106 -0.000000 0.525492 0.383465 -0.191107 6.223916 -121.656692 -0.000000 0.185048 0.268100 -0.443103
7.850000 49.008364 518.592429 -0.000000 0.530114 0.372534 -0.190486 -4.725146 -131.311632 -0.000000 0.183458 0.277964 -0.443128
7.855000 44.691129 538.469656 -0.000000 0.534106 0.361566 -0.190042 -14.212256 -134.237239 -0.000000 0.182539 0.287745 -0.443236
7.860000 38.797090 554.552590 -0.000000 0.537713 0.350510 -0.190778 -21.648819 -131.444428 -0.000000 0.182070 0.297455 -0.443136
7.865000 32.433333 567.703501 -0.000000 0.540681 0.339267 -0.190939 -26.648346 -124.515950 -0.000000 0.182239 0.307418 -0.443208
7.870000 25.794930 578.966094 -0.000000 0.542460 0.327992 -0.191120 -28.871004 -115.263160 -0.000000 0.182964 0.317585 -0.443328
7.875000 19.303455 589.300659 -0.000000 0.543452 0.316783 -0.191588 -28.361393 -105.258402 -0.000000 0.184187 0.327885 -0.443150
7.880000 13.004599 599.494533 -0.000000 0.543467 0.305961 -0.192090 -25.408774 -95.609047 -0.000000 0.185850 0.338290 -0.443195
7.885000 7.763010 610.085324 -0.000000 0.542632 0.295330 -0.192428 -20.671380 -86.885890 -0.000000 0.188067 0.348673 -0.443215
